# xmcd
#
# Track frame offsets:
#	150
#	19725
#	40950
#	71700
#	95475
#	112050
#	124650
#	136800
#	148350
#	170325
#	179700
#	191925
#	202350
#	212025
#	229425
#	239250
#	251175
#	261000
#	283650
#	298500
#
# Disc length: 4251 seconds
#
# Revision: 1
# Processed by: cddbd v1.5.1PL0 Copyright (c) Steve Scherf et al.
# Submitted via: CDex 1.50Beta5
#
DISCID=50109914
DTITLE=ALI PROJECT - Avenger O.S.T.
DYEAR=2003
DGENRE=Anime
TTITLE0=月蝕グランギニョル
TTITLE1=幸福の臓箆
TTITLE2=バビロン・カフェ
TTITLE3=MOTHER
TTITLE4=滅びの方舟
TTITLE5=アガペー
TTITLE6=摩天楼の虚
TTITLE7=無垢なる士
TTITLE8=少女殉血
TTITLE9=人形使い
TTITLE10=トロンプイユ迷宮
TTITLE11=永遠的閉塞
TTITLE12=黒衣の小ドール
TTITLE13=繭
TTITLE14=禁欲と美
TTITLE15=囚われた魂
TTITLE16=赤い星
TTITLE17=地獄の季節
TTITLE18=until the end of the world
TTITLE19=未來のイヴ
EXTD=
EXTT0=
EXTT1=
EXTT2=
EXTT3=
EXTT4=
EXTT5=
EXTT6=
EXTT7=
EXTT8=
EXTT9=
EXTT10=
EXTT11=
EXTT12=
EXTT13=
EXTT14=
EXTT15=
EXTT16=
EXTT17=
EXTT18=
EXTT19=
PLAYORDER=
